//VER = ALT + D

@startuml TablaSimbolos

skinparam ClassAttributeIconSize 0
hide circle

class TablaSimbolos <<singleton>>{
    -List <Contexto> contexto
    +getTablaSimbolos(): TablaSimbolos
    +addContexto()
    +deleteContexto()
    +addSimbolo(ID)
    +buscarSimbolo(String, nombre): ID
    +buscarSimboloContexto(String, nombre): //seria buscar localmente, dentro de la parentesis
}

class Contexto{
    -diccionario <ID> simbolos
    + addSimbolo(ID id)
    + buscarSimbolo(String, nombre): ID

}
class ID <<abstract>>{
    -String nombre
    -String tipoDato
    -bool inicializado
    -bool usado
    + setInicializado()
    + getInicializado()
    + getUsado()
    + setUsado()
} 

class Variable {
}

class Funcion {
    - List<ID> args
    - getListaArgs() : Lista<ID>
}

TablaSimbolos -right-> Contexto
Contexto -right-> ID
ID <|-- Variable
ID <|-- Funcion

@enduml